<svg xmlns="http://www.w3.org/2000/svg" width="800" height="306" viewBox="0 0 800 306" role="img" aria-labelledby="t d">
<title id="t">Colton McCasland</title>
<desc id="d">Profile. Occupation: fullstack engineer. Builds: software, hardware and CAD. Active on GitHub since 2018. The hexdump decodes to: Fullstack engineer. Software, hardware, and CAD.</desc>
<defs><pattern id="ht" width="6" height="6" patternUnits="userSpaceOnUse" patternTransform="rotate(45)"><rect class="q" width="1.4" height="6"/></pattern></defs>
<style>
text{font-family:ui-monospace,SFMono-Regular,"SF Mono",Menlo,Consolas,"Liberation Mono","DejaVu Sans Mono",monospace}
.bg{fill:#0a0c0f}.bd{fill:none;stroke:#252a32}
.f{fill:#e9eef3}.d{fill:#e9eef3;fill-opacity:.52}.q{fill:#e9eef3;fill-opacity:.3}
.a{fill:#6fdcff}
.ln{fill:none;stroke:#e9eef3;stroke-opacity:.16}
.br{fill:none;stroke:#e9eef3;stroke-opacity:.7;stroke-width:1.5}
.bx{fill:#e9eef3;fill-opacity:.04;stroke:#e9eef3;stroke-opacity:.34}
.hl{fill:#6fdcff;fill-opacity:.22}
.pu{fill:none;stroke:#6fdcff;stroke-width:1.6}
@media (prefers-color-scheme:light){
.bg{fill:#f4f5f7}.bd{stroke:#d0d7de}
.f{fill:#0d1117}.d{fill:#0d1117;fill-opacity:.58}.q{fill:#0d1117;fill-opacity:.34}
.a{fill:#0a66d0}
.ln{stroke:#0d1117;stroke-opacity:.16}
.br{stroke:#0d1117;stroke-opacity:.75}
.bx{fill:#0d1117;fill-opacity:.03;stroke:#0d1117;stroke-opacity:.34}
.hl{fill:#0a66d0;fill-opacity:.16}
.pu{stroke:#0a66d0}
}
@keyframes blink{50%{opacity:0}}
.bk{animation:blink 1.4s step-end infinite}
.sc{opacity:0;animation:hold linear 1}
@keyframes hold{from,to{opacity:1}}
.sg{animation:cyc .27s step-end infinite}
@keyframes cyc{0%{opacity:1}33.4%,100%{opacity:0}}
.fin{animation:wait linear 1}
@keyframes wait{from,to{opacity:0}}
.cy{animation:cy 16.8s steps(6) infinite}
@keyframes cy{to{transform:translateY(132px)}}
.cx{animation:cx 2.8s steps(8) infinite}
@keyframes cx{to{transform:translateX(144px)}}
.ca{animation:ca 2.8s steps(8) infinite}
@keyframes ca{to{transform:translateX(60.0px)}}
@media (prefers-reduced-motion:reduce){*{animation:none!important}}
</style>
<rect class="bg" width="800" height="306" rx="3"/>
<rect class="bd" x=".5" y=".5" width="799" height="305" rx="2.5"/>
<path class="br" d="M1 13V1h12M787 1h12v12M799 293v12h-12M13 305H1v-12"/>
<rect class="a" x="40" y="24" width="7" height="7"/>
<text class="d" x="56" y="31.5" font-size="11" letter-spacing="1">00</text>
<text class="f" x="80" y="31.5" font-size="12" font-weight="700" letter-spacing="3">PROFILE</text>
<text class="q" x="168" y="31.5" font-size="10" letter-spacing=".5">50 52 4F 46 49 4C 45</text>
<text class="d" x="746" y="31.5" font-size="10.5" letter-spacing="2" text-anchor="end">CONNECTED</text><rect class="a bk" x="753" y="24" width="7" height="7"/>
<line class="ln" x1="40" y1="46" x2="760" y2="46"/>
<text class="d" x="40" y="76" font-size="10.5" letter-spacing="1.6">SUBJECT</text>
<g class="sc" style="animation-duration:0.50s"><text class="d sg" style="animation-delay:0.00s" x="53.5" y="118" font-size="30" font-weight="700" text-anchor="middle">+</text><text class="d sg" style="animation-delay:-0.09s" x="53.5" y="118" font-size="30" font-weight="700" text-anchor="middle">$</text><text class="d sg" style="animation-delay:-0.18s" x="53.5" y="118" font-size="30" font-weight="700" text-anchor="middle">0</text></g><text class="f fin" style="animation-duration:0.50s" x="53.5" y="118" font-size="30" font-weight="700" text-anchor="middle">C</text><text class="q" x="53.5" y="138" font-size="9.5" text-anchor="middle">43</text>
<g class="sc" style="animation-duration:0.59s"><text class="d sg" style="animation-delay:0.00s" x="80.5" y="118" font-size="30" font-weight="700" text-anchor="middle">8</text><text class="d sg" style="animation-delay:-0.09s" x="80.5" y="118" font-size="30" font-weight="700" text-anchor="middle">%</text><text class="d sg" style="animation-delay:-0.18s" x="80.5" y="118" font-size="30" font-weight="700" text-anchor="middle">&amp;</text></g><text class="f fin" style="animation-duration:0.59s" x="80.5" y="118" font-size="30" font-weight="700" text-anchor="middle">O</text><text class="q" x="80.5" y="138" font-size="9.5" text-anchor="middle">4F</text>
<g class="sc" style="animation-duration:0.68s"><text class="d sg" style="animation-delay:0.00s" x="107.5" y="118" font-size="30" font-weight="700" text-anchor="middle">E</text><text class="d sg" style="animation-delay:-0.09s" x="107.5" y="118" font-size="30" font-weight="700" text-anchor="middle">5</text><text class="d sg" style="animation-delay:-0.18s" x="107.5" y="118" font-size="30" font-weight="700" text-anchor="middle">@</text></g><text class="f fin" style="animation-duration:0.68s" x="107.5" y="118" font-size="30" font-weight="700" text-anchor="middle">L</text><text class="q" x="107.5" y="138" font-size="9.5" text-anchor="middle">4C</text>
<g class="sc" style="animation-duration:0.77s"><text class="d sg" style="animation-delay:0.00s" x="134.5" y="118" font-size="30" font-weight="700" text-anchor="middle">=</text><text class="d sg" style="animation-delay:-0.09s" x="134.5" y="118" font-size="30" font-weight="700" text-anchor="middle">6</text><text class="d sg" style="animation-delay:-0.18s" x="134.5" y="118" font-size="30" font-weight="700" text-anchor="middle">%</text></g><text class="f fin" style="animation-duration:0.77s" x="134.5" y="118" font-size="30" font-weight="700" text-anchor="middle">T</text><text class="q" x="134.5" y="138" font-size="9.5" text-anchor="middle">54</text>
<g class="sc" style="animation-duration:0.86s"><text class="d sg" style="animation-delay:0.00s" x="161.5" y="118" font-size="30" font-weight="700" text-anchor="middle">4</text><text class="d sg" style="animation-delay:-0.09s" x="161.5" y="118" font-size="30" font-weight="700" text-anchor="middle">/</text><text class="d sg" style="animation-delay:-0.18s" x="161.5" y="118" font-size="30" font-weight="700" text-anchor="middle">%</text></g><text class="f fin" style="animation-duration:0.86s" x="161.5" y="118" font-size="30" font-weight="700" text-anchor="middle">O</text><text class="q" x="161.5" y="138" font-size="9.5" text-anchor="middle">4F</text>
<g class="sc" style="animation-duration:0.95s"><text class="d sg" style="animation-delay:0.00s" x="188.5" y="118" font-size="30" font-weight="700" text-anchor="middle">&amp;</text><text class="d sg" style="animation-delay:-0.09s" x="188.5" y="118" font-size="30" font-weight="700" text-anchor="middle">1</text><text class="d sg" style="animation-delay:-0.18s" x="188.5" y="118" font-size="30" font-weight="700" text-anchor="middle">1</text></g><text class="f fin" style="animation-duration:0.95s" x="188.5" y="118" font-size="30" font-weight="700" text-anchor="middle">N</text><text class="q" x="188.5" y="138" font-size="9.5" text-anchor="middle">4E</text>
<g class="sc" style="animation-duration:1.13s"><text class="d sg" style="animation-delay:0.00s" x="242.5" y="118" font-size="30" font-weight="700" text-anchor="middle">&amp;</text><text class="d sg" style="animation-delay:-0.09s" x="242.5" y="118" font-size="30" font-weight="700" text-anchor="middle">&lt;</text><text class="d sg" style="animation-delay:-0.18s" x="242.5" y="118" font-size="30" font-weight="700" text-anchor="middle">&amp;</text></g><text class="f fin" style="animation-duration:1.13s" x="242.5" y="118" font-size="30" font-weight="700" text-anchor="middle">M</text><text class="q" x="242.5" y="138" font-size="9.5" text-anchor="middle">4D</text>
<g class="sc" style="animation-duration:1.22s"><text class="d sg" style="animation-delay:0.00s" x="269.5" y="118" font-size="30" font-weight="700" text-anchor="middle">5</text><text class="d sg" style="animation-delay:-0.09s" x="269.5" y="118" font-size="30" font-weight="700" text-anchor="middle">1</text><text class="d sg" style="animation-delay:-0.18s" x="269.5" y="118" font-size="30" font-weight="700" text-anchor="middle">%</text></g><text class="f fin" style="animation-duration:1.22s" x="269.5" y="118" font-size="30" font-weight="700" text-anchor="middle">c</text><text class="q" x="269.5" y="138" font-size="9.5" text-anchor="middle">63</text>
<g class="sc" style="animation-duration:1.31s"><text class="d sg" style="animation-delay:0.00s" x="296.5" y="118" font-size="30" font-weight="700" text-anchor="middle">E</text><text class="d sg" style="animation-delay:-0.09s" x="296.5" y="118" font-size="30" font-weight="700" text-anchor="middle">6</text><text class="d sg" style="animation-delay:-0.18s" x="296.5" y="118" font-size="30" font-weight="700" text-anchor="middle">@</text></g><text class="f fin" style="animation-duration:1.31s" x="296.5" y="118" font-size="30" font-weight="700" text-anchor="middle">C</text><text class="q" x="296.5" y="138" font-size="9.5" text-anchor="middle">43</text>
<g class="sc" style="animation-duration:1.40s"><text class="d sg" style="animation-delay:0.00s" x="323.5" y="118" font-size="30" font-weight="700" text-anchor="middle">&lt;</text><text class="d sg" style="animation-delay:-0.09s" x="323.5" y="118" font-size="30" font-weight="700" text-anchor="middle">8</text><text class="d sg" style="animation-delay:-0.18s" x="323.5" y="118" font-size="30" font-weight="700" text-anchor="middle">8</text></g><text class="f fin" style="animation-duration:1.40s" x="323.5" y="118" font-size="30" font-weight="700" text-anchor="middle">A</text><text class="q" x="323.5" y="138" font-size="9.5" text-anchor="middle">41</text>
<g class="sc" style="animation-duration:1.49s"><text class="d sg" style="animation-delay:0.00s" x="350.5" y="118" font-size="30" font-weight="700" text-anchor="middle">6</text><text class="d sg" style="animation-delay:-0.09s" x="350.5" y="118" font-size="30" font-weight="700" text-anchor="middle">%</text><text class="d sg" style="animation-delay:-0.18s" x="350.5" y="118" font-size="30" font-weight="700" text-anchor="middle">6</text></g><text class="f fin" style="animation-duration:1.49s" x="350.5" y="118" font-size="30" font-weight="700" text-anchor="middle">S</text><text class="q" x="350.5" y="138" font-size="9.5" text-anchor="middle">53</text>
<g class="sc" style="animation-duration:1.58s"><text class="d sg" style="animation-delay:0.00s" x="377.5" y="118" font-size="30" font-weight="700" text-anchor="middle">6</text><text class="d sg" style="animation-delay:-0.09s" x="377.5" y="118" font-size="30" font-weight="700" text-anchor="middle">0</text><text class="d sg" style="animation-delay:-0.18s" x="377.5" y="118" font-size="30" font-weight="700" text-anchor="middle">%</text></g><text class="f fin" style="animation-duration:1.58s" x="377.5" y="118" font-size="30" font-weight="700" text-anchor="middle">L</text><text class="q" x="377.5" y="138" font-size="9.5" text-anchor="middle">4C</text>
<g class="sc" style="animation-duration:1.67s"><text class="d sg" style="animation-delay:0.00s" x="404.5" y="118" font-size="30" font-weight="700" text-anchor="middle">&lt;</text><text class="d sg" style="animation-delay:-0.09s" x="404.5" y="118" font-size="30" font-weight="700" text-anchor="middle">%</text><text class="d sg" style="animation-delay:-0.18s" x="404.5" y="118" font-size="30" font-weight="700" text-anchor="middle">5</text></g><text class="f fin" style="animation-duration:1.67s" x="404.5" y="118" font-size="30" font-weight="700" text-anchor="middle">A</text><text class="q" x="404.5" y="138" font-size="9.5" text-anchor="middle">41</text>
<g class="sc" style="animation-duration:1.76s"><text class="d sg" style="animation-delay:0.00s" x="431.5" y="118" font-size="30" font-weight="700" text-anchor="middle">F</text><text class="d sg" style="animation-delay:-0.09s" x="431.5" y="118" font-size="30" font-weight="700" text-anchor="middle">$</text><text class="d sg" style="animation-delay:-0.18s" x="431.5" y="118" font-size="30" font-weight="700" text-anchor="middle">*</text></g><text class="f fin" style="animation-duration:1.76s" x="431.5" y="118" font-size="30" font-weight="700" text-anchor="middle">N</text><text class="q" x="431.5" y="138" font-size="9.5" text-anchor="middle">4E</text>
<g class="sc" style="animation-duration:1.85s"><text class="d sg" style="animation-delay:0.00s" x="458.5" y="118" font-size="30" font-weight="700" text-anchor="middle">1</text><text class="d sg" style="animation-delay:-0.09s" x="458.5" y="118" font-size="30" font-weight="700" text-anchor="middle">$</text><text class="d sg" style="animation-delay:-0.18s" x="458.5" y="118" font-size="30" font-weight="700" text-anchor="middle">5</text></g><text class="f fin" style="animation-duration:1.85s" x="458.5" y="118" font-size="30" font-weight="700" text-anchor="middle">D</text><text class="q" x="458.5" y="138" font-size="9.5" text-anchor="middle">44</text>
<line class="ln" x1="40" y1="154" x2="472" y2="154"/>
<text class="d" x="40" y="184" font-size="10.5" letter-spacing="1.6">OCCUPATION</text><text class="f" x="150" y="184" font-size="13.5" letter-spacing=".6">FULLSTACK ENGINEER</text>
<text class="d" x="40" y="210" font-size="10.5" letter-spacing="1.6">BUILDS</text><text class="f" x="150" y="210" font-size="13.5" letter-spacing=".6">SOFTWARE / HARDWARE / CAD</text>
<text class="d" x="40" y="236" font-size="10.5" letter-spacing="1.6">ACTIVE</text><text class="f" x="150" y="236" font-size="13.5" letter-spacing=".6">GITHUB SINCE 2018</text>
<path class="br" stroke-opacity=".45" d="M500 74v-10h10M750 64h10v10M760 240v10h-10M510 250h-10v-10"/>
<text class="d" x="512" y="86" font-size="10" letter-spacing="1.6">HEXDUMP</text><text class="q" x="748" y="86" font-size="10" letter-spacing="1" text-anchor="end">48 BYTES</text>
<g class="cy"><g class="cx"><rect class="hl" x="538" y="101" width="16" height="14"/></g><g class="ca"><rect class="hl" x="690.25" y="101" width="7.5" height="14"/></g></g>
<text class="q" x="512" y="112" font-size="10.5">00</text><text class="d" y="112" font-size="10.5" text-anchor="middle"><tspan x="546">46</tspan><tspan x="564">75</tspan><tspan x="582">6c</tspan><tspan x="600">6c</tspan><tspan x="618">73</tspan><tspan x="636">74</tspan><tspan x="654">61</tspan><tspan x="672">63</tspan></text><text class="f" y="112" font-size="10.5" text-anchor="middle"><tspan x="694.0">F</tspan><tspan x="701.5">u</tspan><tspan x="709.0">l</tspan><tspan x="716.5">l</tspan><tspan x="724.0">s</tspan><tspan x="731.5">t</tspan><tspan x="739.0">a</tspan><tspan x="746.5">c</tspan></text>
<text class="q" x="512" y="134" font-size="10.5">08</text><text class="d" y="134" font-size="10.5" text-anchor="middle"><tspan x="546">6b</tspan><tspan x="564">20</tspan><tspan x="582">65</tspan><tspan x="600">6e</tspan><tspan x="618">67</tspan><tspan x="636">69</tspan><tspan x="654">6e</tspan><tspan x="672">65</tspan></text><text class="f" y="134" font-size="10.5" text-anchor="middle"><tspan x="694.0">k</tspan><tspan x="709.0">e</tspan><tspan x="716.5">n</tspan><tspan x="724.0">g</tspan><tspan x="731.5">i</tspan><tspan x="739.0">n</tspan><tspan x="746.5">e</tspan></text>
<text class="q" x="512" y="156" font-size="10.5">10</text><text class="d" y="156" font-size="10.5" text-anchor="middle"><tspan x="546">65</tspan><tspan x="564">72</tspan><tspan x="582">2e</tspan><tspan x="600">20</tspan><tspan x="618">53</tspan><tspan x="636">6f</tspan><tspan x="654">66</tspan><tspan x="672">74</tspan></text><text class="f" y="156" font-size="10.5" text-anchor="middle"><tspan x="694.0">e</tspan><tspan x="701.5">r</tspan><tspan x="709.0">.</tspan><tspan x="724.0">S</tspan><tspan x="731.5">o</tspan><tspan x="739.0">f</tspan><tspan x="746.5">t</tspan></text>
<text class="q" x="512" y="178" font-size="10.5">18</text><text class="d" y="178" font-size="10.5" text-anchor="middle"><tspan x="546">77</tspan><tspan x="564">61</tspan><tspan x="582">72</tspan><tspan x="600">65</tspan><tspan x="618">2c</tspan><tspan x="636">20</tspan><tspan x="654">68</tspan><tspan x="672">61</tspan></text><text class="f" y="178" font-size="10.5" text-anchor="middle"><tspan x="694.0">w</tspan><tspan x="701.5">a</tspan><tspan x="709.0">r</tspan><tspan x="716.5">e</tspan><tspan x="724.0">,</tspan><tspan x="739.0">h</tspan><tspan x="746.5">a</tspan></text>
<text class="q" x="512" y="200" font-size="10.5">20</text><text class="d" y="200" font-size="10.5" text-anchor="middle"><tspan x="546">72</tspan><tspan x="564">64</tspan><tspan x="582">77</tspan><tspan x="600">61</tspan><tspan x="618">72</tspan><tspan x="636">65</tspan><tspan x="654">2c</tspan><tspan x="672">20</tspan></text><text class="f" y="200" font-size="10.5" text-anchor="middle"><tspan x="694.0">r</tspan><tspan x="701.5">d</tspan><tspan x="709.0">w</tspan><tspan x="716.5">a</tspan><tspan x="724.0">r</tspan><tspan x="731.5">e</tspan><tspan x="739.0">,</tspan></text>
<text class="q" x="512" y="222" font-size="10.5">28</text><text class="d" y="222" font-size="10.5" text-anchor="middle"><tspan x="546">61</tspan><tspan x="564">6e</tspan><tspan x="582">64</tspan><tspan x="600">20</tspan><tspan x="618">43</tspan><tspan x="636">41</tspan><tspan x="654">44</tspan><tspan x="672">2e</tspan></text><text class="f" y="222" font-size="10.5" text-anchor="middle"><tspan x="694.0">a</tspan><tspan x="701.5">n</tspan><tspan x="709.0">d</tspan><tspan x="724.0">C</tspan><tspan x="731.5">A</tspan><tspan x="739.0">D</tspan><tspan x="746.5">.</tspan></text>
<path class="ln" stroke-opacity=".3" d="M40 286v-9M48 286v-4M56 286v-4M64 286v-4M72 286v-4M80 286v-9M88 286v-4M96 286v-4M104 286v-4M112 286v-4M120 286v-9M128 286v-4M136 286v-4M144 286v-4M152 286v-4M160 286v-9M168 286v-4M176 286v-4M184 286v-4M192 286v-4M200 286v-9M208 286v-4M216 286v-4M224 286v-4M232 286v-4M240 286v-9M248 286v-4M256 286v-4M264 286v-4M272 286v-4M280 286v-9M288 286v-4M296 286v-4M304 286v-4M312 286v-4M320 286v-9M328 286v-4M336 286v-4M344 286v-4M352 286v-4M360 286v-9M368 286v-4M376 286v-4M384 286v-4M392 286v-4M400 286v-9M408 286v-4M416 286v-4M424 286v-4M432 286v-4M440 286v-9M448 286v-4M456 286v-4M464 286v-4M472 286v-4M480 286v-9M488 286v-4M496 286v-4M504 286v-4M512 286v-4M520 286v-9M528 286v-4M536 286v-4M544 286v-4M552 286v-4M560 286v-9M568 286v-4M576 286v-4M584 286v-4M592 286v-4M600 286v-9M608 286v-4M616 286v-4M624 286v-4M632 286v-4M640 286v-9M648 286v-4M656 286v-4M664 286v-4M672 286v-4M680 286v-9M688 286v-4M696 286v-4M704 286v-4M712 286v-4M720 286v-9M728 286v-4M736 286v-4M744 286v-4M752 286v-4M760 286v-9"/>

</svg>
